<svg aria-roledescription="er" role="graphics-document document" viewBox="0 0 230.859375 688.5" style="max-width: 230.859px; background-color: white;" xmlns:xlink="http://www.w3.org/1999/xlink" xmlns="http://www.w3.org/2000/svg" width="100%" id="my-svg"><style>#my-svg{font-family:"trebuchet ms",verdana,arial,sans-serif;font-size:16px;fill:#000000;}#my-svg .error-icon{fill:#552222;}#my-svg .error-text{fill:#552222;stroke:#552222;}#my-svg .edge-thickness-normal{stroke-width:2px;}#my-svg .edge-thickness-thick{stroke-width:3.5px;}#my-svg .edge-pattern-solid{stroke-dasharray:0;}#my-svg .edge-pattern-dashed{stroke-dasharray:3;}#my-svg .edge-pattern-dotted{stroke-dasharray:2;}#my-svg .marker{fill:#000000;stroke:#000000;}#my-svg .marker.cross{stroke:#000000;}#my-svg svg{font-family:"trebuchet ms",verdana,arial,sans-serif;font-size:16px;}#my-svg .entityBox{fill:#cde498;stroke:#13540c;}#my-svg .attributeBoxOdd{fill:#ffffff;stroke:#13540c;}#my-svg .attributeBoxEven{fill:#f2f2f2;stroke:#13540c;}#my-svg .relationshipLabelBox{fill:hsl(78.1578947368, 58.4615384615%, 84.5098039216%);opacity:0.7;background-color:hsl(78.1578947368, 58.4615384615%, 84.5098039216%);}#my-svg .relationshipLabelBox rect{opacity:0.5;}#my-svg .relationshipLine{stroke:#000000;}#my-svg .entityTitleText{text-anchor:middle;font-size:18px;fill:#000000;}#my-svg #MD_PARENT_START{fill:#f5f5f5!important;stroke:#000000!important;stroke-width:1;}#my-svg #MD_PARENT_END{fill:#f5f5f5!important;stroke:#000000!important;stroke-width:1;}#my-svg :root{--mermaid-font-family:"trebuchet ms",verdana,arial,sans-serif;}</style><g/><defs><marker orient="auto" markerHeight="240" markerWidth="190" refY="7" refX="0" id="MD_PARENT_START"><path d="M 18,7 L9,13 L1,7 L9,1 Z"/></marker></defs><defs><marker orient="auto" markerHeight="28" markerWidth="20" refY="7" refX="19" id="MD_PARENT_END"><path d="M 18,7 L9,13 L1,7 L9,1 Z"/></marker></defs><defs><marker orient="auto" markerHeight="18" markerWidth="18" refY="9" refX="0" id="ONLY_ONE_START"><path d="M9,0 L9,18 M15,0 L15,18" fill="none" stroke="gray"/></marker></defs><defs><marker orient="auto" markerHeight="18" markerWidth="18" refY="9" refX="18" id="ONLY_ONE_END"><path d="M3,0 L3,18 M9,0 L9,18" fill="none" stroke="gray"/></marker></defs><defs><marker orient="auto" markerHeight="18" markerWidth="30" refY="9" refX="0" id="ZERO_OR_ONE_START"><circle r="6" cy="9" cx="21" fill="white" stroke="gray"/><path d="M9,0 L9,18" fill="none" stroke="gray"/></marker></defs><defs><marker orient="auto" markerHeight="18" markerWidth="30" refY="9" refX="30" id="ZERO_OR_ONE_END"><circle r="6" cy="9" cx="9" fill="white" stroke="gray"/><path d="M21,0 L21,18" fill="none" stroke="gray"/></marker></defs><defs><marker orient="auto" markerHeight="36" markerWidth="45" refY="18" refX="18" id="ONE_OR_MORE_START"><path d="M0,18 Q 18,0 36,18 Q 18,36 0,18 M42,9 L42,27" fill="none" stroke="gray"/></marker></defs><defs><marker orient="auto" markerHeight="36" markerWidth="45" refY="18" refX="27" id="ONE_OR_MORE_END"><path d="M3,9 L3,27 M9,18 Q27,0 45,18 Q27,36 9,18" fill="none" stroke="gray"/></marker></defs><defs><marker orient="auto" markerHeight="36" markerWidth="57" refY="18" refX="18" id="ZERO_OR_MORE_START"><circle r="6" cy="18" cx="48" fill="white" stroke="gray"/><path d="M0,18 Q18,0 36,18 Q18,36 0,18" fill="none" stroke="gray"/></marker></defs><defs><marker orient="auto" markerHeight="36" markerWidth="57" refY="18" refX="39" id="ZERO_OR_MORE_END"><circle r="6" cy="18" cx="9" fill="white" stroke="gray"/><path d="M21,18 Q39,0 57,18 Q39,36 21,18" fill="none" stroke="gray"/></marker></defs><path style="stroke: gray; fill: none;" marker-start="url(#ZERO_OR_MORE_START)" marker-end="url(#ZERO_OR_MORE_END)" d="M83.35083445340501,199L80.36397662783752,207.33333333333334C77.37711880227,215.66666666666666,71.40340315113501,232.33333333333334,71.65908747861549,249C71.91477180609598,265.6666666666667,78.39985611219196,282.3333333333333,81.64239826523995,290.6666666666667L84.88494041828794,299" class="er relationshipLine"/><path style="stroke: gray; fill: none;" marker-start="url(#ZERO_OR_ONE_START)" marker-end="url(#ONLY_ONE_END)" d="M145.97443458171207,299L149.21697673476007,290.6666666666667C152.45951888780806,282.3333333333333,158.94460319390404,265.6666666666667,159.20028752138452,249C159.455971848865,232.33333333333334,153.48225619772998,215.66666666666666,150.4953983721625,207.33333333333334L147.508540546595,199" class="er relationshipLine"/><path style="stroke: gray; fill: none;" marker-start="url(#ZERO_OR_MORE_START)" marker-end="url(#ZERO_OR_MORE_END)" d="M84.88494041828794,456L81.64239826523995,464.3333333333333C78.39985611219196,472.6666666666667,71.91477180609598,489.3333333333333,72.59379828049897,506C73.27282475490196,522.6666666666666,81.11596200980392,539.3333333333334,85.0375306372549,547.6666666666666L88.95909926470588,556" class="er relationshipLine"/><path style="stroke: gray; fill: none;" marker-start="url(#ZERO_OR_ONE_START)" marker-end="url(#ONLY_ONE_END)" d="M141.90027573529412,556L145.8218443627451,547.6666666666666C149.74341299019608,539.3333333333334,157.58655024509804,522.6666666666666,158.26557671950104,506C158.94460319390404,489.3333333333333,152.45951888780806,472.6666666666667,149.21697673476007,464.3333333333333L145.97443458171207,456" class="er relationshipLine"/><g transform="translate(51.33984375,20 )" id="entity-Users-8b6eb67b-f64b-5426-9c24-135a96b8b656"><rect height="179" width="128.1796875" y="0" x="0" class="er entityBox"/><text style="dominant-baseline: middle; text-anchor: middle; font-size: 12px;" transform="translate(64.08984375,12)" y="0" x="0" id="text-entity-Users-8b6eb67b-f64b-5426-9c24-135a96b8b656" class="er entityLabel">Users</text><rect height="22.5" width="53.6640625" y="24" x="0" class="er attributeBoxOdd"/><text style="dominant-baseline: middle; font-size: 10.2px;" transform="translate(5,35.25)" y="0" x="0" id="text-entity-Users-8b6eb67b-f64b-5426-9c24-135a96b8b656-attr-1-type" class="er entityLabel">String</text><rect height="22.5" width="52.015625" y="24" x="53.6640625" class="er attributeBoxOdd"/><text style="dominant-baseline: middle; font-size: 10.2px;" transform="translate(58.6640625,35.25)" y="0" x="0" id="text-entity-Users-8b6eb67b-f64b-5426-9c24-135a96b8b656-attr-1-name" class="er entityLabel">id</text><rect height="22.5" width="22.5" y="24" x="105.6796875" class="er attributeBoxOdd"/><text style="dominant-baseline: middle; font-size: 10.2px;" transform="translate(110.6796875,35.25)" y="0" x="0" id="text-entity-Users-8b6eb67b-f64b-5426-9c24-135a96b8b656-attr-1-comment" class="er entityLabel">🗝️</text><rect height="22" width="53.6640625" y="46.5" x="0" class="er attributeBoxEven"/><text style="dominant-baseline: middle; font-size: 10.2px;" transform="translate(5,57.5)" y="0" x="0" id="text-entity-Users-8b6eb67b-f64b-5426-9c24-135a96b8b656-attr-2-type" class="er entityLabel">String</text><rect height="22" width="52.015625" y="46.5" x="53.6640625" class="er attributeBoxEven"/><text style="dominant-baseline: middle; font-size: 10.2px;" transform="translate(58.6640625,57.5)" y="0" x="0" id="text-entity-Users-8b6eb67b-f64b-5426-9c24-135a96b8b656-attr-2-name" class="er entityLabel">name</text><rect height="22" width="22.5" y="46.5" x="105.6796875" class="er attributeBoxEven"/><text style="dominant-baseline: middle; font-size: 10.2px;" transform="translate(110.6796875,57.5)" y="0" x="0" id="text-entity-Users-8b6eb67b-f64b-5426-9c24-135a96b8b656-attr-2-comment" class="er entityLabel"/><rect height="22" width="53.6640625" y="68.5" x="0" class="er attributeBoxOdd"/><text style="dominant-baseline: middle; font-size: 10.2px;" transform="translate(5,79.5)" y="0" x="0" id="text-entity-Users-8b6eb67b-f64b-5426-9c24-135a96b8b656-attr-3-type" class="er entityLabel">String</text><rect height="22" width="52.015625" y="68.5" x="53.6640625" class="er attributeBoxOdd"/><text style="dominant-baseline: middle; font-size: 10.2px;" transform="translate(58.6640625,79.5)" y="0" x="0" id="text-entity-Users-8b6eb67b-f64b-5426-9c24-135a96b8b656-attr-3-name" class="er entityLabel">email</text><rect height="22" width="22.5" y="68.5" x="105.6796875" class="er attributeBoxOdd"/><text style="dominant-baseline: middle; font-size: 10.2px;" transform="translate(110.6796875,79.5)" y="0" x="0" id="text-entity-Users-8b6eb67b-f64b-5426-9c24-135a96b8b656-attr-3-comment" class="er entityLabel"/><rect height="22" width="53.6640625" y="90.5" x="0" class="er attributeBoxEven"/><text style="dominant-baseline: middle; font-size: 10.2px;" transform="translate(5,101.5)" y="0" x="0" id="text-entity-Users-8b6eb67b-f64b-5426-9c24-135a96b8b656-attr-4-type" class="er entityLabel">String</text><rect height="22" width="52.015625" y="90.5" x="53.6640625" class="er attributeBoxEven"/><text style="dominant-baseline: middle; font-size: 10.2px;" transform="translate(58.6640625,101.5)" y="0" x="0" id="text-entity-Users-8b6eb67b-f64b-5426-9c24-135a96b8b656-attr-4-name" class="er entityLabel">password</text><rect height="22" width="22.5" y="90.5" x="105.6796875" class="er attributeBoxEven"/><text style="dominant-baseline: middle; font-size: 10.2px;" transform="translate(110.6796875,101.5)" y="0" x="0" id="text-entity-Users-8b6eb67b-f64b-5426-9c24-135a96b8b656-attr-4-comment" class="er entityLabel"/><rect height="22" width="53.6640625" y="112.5" x="0" class="er attributeBoxOdd"/><text style="dominant-baseline: middle; font-size: 10.2px;" transform="translate(5,123.5)" y="0" x="0" id="text-entity-Users-8b6eb67b-f64b-5426-9c24-135a96b8b656-attr-5-type" class="er entityLabel">DateTime</text><rect height="22" width="52.015625" y="112.5" x="53.6640625" class="er attributeBoxOdd"/><text style="dominant-baseline: middle; font-size: 10.2px;" transform="translate(58.6640625,123.5)" y="0" x="0" id="text-entity-Users-8b6eb67b-f64b-5426-9c24-135a96b8b656-attr-5-name" class="er entityLabel">created</text><rect height="22" width="22.5" y="112.5" x="105.6796875" class="er attributeBoxOdd"/><text style="dominant-baseline: middle; font-size: 10.2px;" transform="translate(110.6796875,123.5)" y="0" x="0" id="text-entity-Users-8b6eb67b-f64b-5426-9c24-135a96b8b656-attr-5-comment" class="er entityLabel"/><rect height="22.5" width="53.6640625" y="134.5" x="0" class="er attributeBoxEven"/><text style="dominant-baseline: middle; font-size: 10.2px;" transform="translate(5,145.75)" y="0" x="0" id="text-entity-Users-8b6eb67b-f64b-5426-9c24-135a96b8b656-attr-6-type" class="er entityLabel">DateTime</text><rect height="22.5" width="52.015625" y="134.5" x="53.6640625" class="er attributeBoxEven"/><text style="dominant-baseline: middle; font-size: 10.2px;" transform="translate(58.6640625,145.75)" y="0" x="0" id="text-entity-Users-8b6eb67b-f64b-5426-9c24-135a96b8b656-attr-6-name" class="er entityLabel">modified</text><rect height="22.5" width="22.5" y="134.5" x="105.6796875" class="er attributeBoxEven"/><text style="dominant-baseline: middle; font-size: 10.2px;" transform="translate(110.6796875,145.75)" y="0" x="0" id="text-entity-Users-8b6eb67b-f64b-5426-9c24-135a96b8b656-attr-6-comment" class="er entityLabel">❓</text><rect height="22" width="53.6640625" y="157" x="0" class="er attributeBoxOdd"/><text style="dominant-baseline: middle; font-size: 10.2px;" transform="translate(5,168)" y="0" x="0" id="text-entity-Users-8b6eb67b-f64b-5426-9c24-135a96b8b656-attr-7-type" class="er entityLabel">Boolean</text><rect height="22" width="52.015625" y="157" x="53.6640625" class="er attributeBoxOdd"/><text style="dominant-baseline: middle; font-size: 10.2px;" transform="translate(58.6640625,168)" y="0" x="0" id="text-entity-Users-8b6eb67b-f64b-5426-9c24-135a96b8b656-attr-7-name" class="er entityLabel">deleted</text><rect height="22" width="22.5" y="157" x="105.6796875" class="er attributeBoxOdd"/><text style="dominant-baseline: middle; font-size: 10.2px;" transform="translate(110.6796875,168)" y="0" x="0" id="text-entity-Users-8b6eb67b-f64b-5426-9c24-135a96b8b656-attr-7-comment" class="er entityLabel"/></g><g transform="translate(20,299 )" id="entity-Barbecues-c8a846d9-7afd-527b-91d2-203fadc73b0c"><rect height="157" width="190.859375" y="0" x="0" class="er entityBox"/><text style="dominant-baseline: middle; text-anchor: middle; font-size: 12px;" transform="translate(95.4296875,12)" y="0" x="0" id="text-entity-Barbecues-c8a846d9-7afd-527b-91d2-203fadc73b0c" class="er entityLabel">Barbecues</text><rect height="22.5" width="53.6640625" y="24" x="0" class="er attributeBoxOdd"/><text style="dominant-baseline: middle; font-size: 10.2px;" transform="translate(5,35.25)" y="0" x="0" id="text-entity-Barbecues-c8a846d9-7afd-527b-91d2-203fadc73b0c-attr-1-type" class="er entityLabel">String</text><rect height="22.5" width="114.6953125" y="24" x="53.6640625" class="er attributeBoxOdd"/><text style="dominant-baseline: middle; font-size: 10.2px;" transform="translate(58.6640625,35.25)" y="0" x="0" id="text-entity-Barbecues-c8a846d9-7afd-527b-91d2-203fadc73b0c-attr-1-name" class="er entityLabel">id</text><rect height="22.5" width="22.5" y="24" x="168.359375" class="er attributeBoxOdd"/><text style="dominant-baseline: middle; font-size: 10.2px;" transform="translate(173.359375,35.25)" y="0" x="0" id="text-entity-Barbecues-c8a846d9-7afd-527b-91d2-203fadc73b0c-attr-1-comment" class="er entityLabel">🗝️</text><rect height="22" width="53.6640625" y="46.5" x="0" class="er attributeBoxEven"/><text style="dominant-baseline: middle; font-size: 10.2px;" transform="translate(5,57.5)" y="0" x="0" id="text-entity-Barbecues-c8a846d9-7afd-527b-91d2-203fadc73b0c-attr-2-type" class="er entityLabel">DateTime</text><rect height="22" width="114.6953125" y="46.5" x="53.6640625" class="er attributeBoxEven"/><text style="dominant-baseline: middle; font-size: 10.2px;" transform="translate(58.6640625,57.5)" y="0" x="0" id="text-entity-Barbecues-c8a846d9-7afd-527b-91d2-203fadc73b0c-attr-2-name" class="er entityLabel">date</text><rect height="22" width="22.5" y="46.5" x="168.359375" class="er attributeBoxEven"/><text style="dominant-baseline: middle; font-size: 10.2px;" transform="translate(173.359375,57.5)" y="0" x="0" id="text-entity-Barbecues-c8a846d9-7afd-527b-91d2-203fadc73b0c-attr-2-comment" class="er entityLabel"/><rect height="22" width="53.6640625" y="68.5" x="0" class="er attributeBoxOdd"/><text style="dominant-baseline: middle; font-size: 10.2px;" transform="translate(5,79.5)" y="0" x="0" id="text-entity-Barbecues-c8a846d9-7afd-527b-91d2-203fadc73b0c-attr-3-type" class="er entityLabel">String</text><rect height="22" width="114.6953125" y="68.5" x="53.6640625" class="er attributeBoxOdd"/><text style="dominant-baseline: middle; font-size: 10.2px;" transform="translate(58.6640625,79.5)" y="0" x="0" id="text-entity-Barbecues-c8a846d9-7afd-527b-91d2-203fadc73b0c-attr-3-name" class="er entityLabel">description</text><rect height="22" width="22.5" y="68.5" x="168.359375" class="er attributeBoxOdd"/><text style="dominant-baseline: middle; font-size: 10.2px;" transform="translate(173.359375,79.5)" y="0" x="0" id="text-entity-Barbecues-c8a846d9-7afd-527b-91d2-203fadc73b0c-attr-3-comment" class="er entityLabel"/><rect height="22.5" width="53.6640625" y="90.5" x="0" class="er attributeBoxEven"/><text style="dominant-baseline: middle; font-size: 10.2px;" transform="translate(5,101.75)" y="0" x="0" id="text-entity-Barbecues-c8a846d9-7afd-527b-91d2-203fadc73b0c-attr-4-type" class="er entityLabel">String</text><rect height="22.5" width="114.6953125" y="90.5" x="53.6640625" class="er attributeBoxEven"/><text style="dominant-baseline: middle; font-size: 10.2px;" transform="translate(58.6640625,101.75)" y="0" x="0" id="text-entity-Barbecues-c8a846d9-7afd-527b-91d2-203fadc73b0c-attr-4-name" class="er entityLabel">additionalObservations</text><rect height="22.5" width="22.5" y="90.5" x="168.359375" class="er attributeBoxEven"/><text style="dominant-baseline: middle; font-size: 10.2px;" transform="translate(173.359375,101.75)" y="0" x="0" id="text-entity-Barbecues-c8a846d9-7afd-527b-91d2-203fadc73b0c-attr-4-comment" class="er entityLabel">❓</text><rect height="22" width="53.6640625" y="113" x="0" class="er attributeBoxOdd"/><text style="dominant-baseline: middle; font-size: 10.2px;" transform="translate(5,124)" y="0" x="0" id="text-entity-Barbecues-c8a846d9-7afd-527b-91d2-203fadc73b0c-attr-5-type" class="er entityLabel">Decimal</text><rect height="22" width="114.6953125" y="113" x="53.6640625" class="er attributeBoxOdd"/><text style="dominant-baseline: middle; font-size: 10.2px;" transform="translate(58.6640625,124)" y="0" x="0" id="text-entity-Barbecues-c8a846d9-7afd-527b-91d2-203fadc73b0c-attr-5-name" class="er entityLabel">priceWithDrink</text><rect height="22" width="22.5" y="113" x="168.359375" class="er attributeBoxOdd"/><text style="dominant-baseline: middle; font-size: 10.2px;" transform="translate(173.359375,124)" y="0" x="0" id="text-entity-Barbecues-c8a846d9-7afd-527b-91d2-203fadc73b0c-attr-5-comment" class="er entityLabel"/><rect height="22" width="53.6640625" y="135" x="0" class="er attributeBoxEven"/><text style="dominant-baseline: middle; font-size: 10.2px;" transform="translate(5,146)" y="0" x="0" id="text-entity-Barbecues-c8a846d9-7afd-527b-91d2-203fadc73b0c-attr-6-type" class="er entityLabel">Decimal</text><rect height="22" width="114.6953125" y="135" x="53.6640625" class="er attributeBoxEven"/><text style="dominant-baseline: middle; font-size: 10.2px;" transform="translate(58.6640625,146)" y="0" x="0" id="text-entity-Barbecues-c8a846d9-7afd-527b-91d2-203fadc73b0c-attr-6-name" class="er entityLabel">priceWithoutDrink</text><rect height="22" width="22.5" y="135" x="168.359375" class="er attributeBoxEven"/><text style="dominant-baseline: middle; font-size: 10.2px;" transform="translate(173.359375,146)" y="0" x="0" id="text-entity-Barbecues-c8a846d9-7afd-527b-91d2-203fadc73b0c-attr-6-comment" class="er entityLabel"/></g><g transform="translate(43.51171875,556 )" id="entity-BarbecueParticipants-77630494-065d-5e39-8a79-5b6e0f8d3362"><rect height="112.5" width="143.8359375" y="0" x="0" class="er entityBox"/><text style="dominant-baseline: middle; text-anchor: middle; font-size: 12px;" transform="translate(71.91796875,12)" y="0" x="0" id="text-entity-BarbecueParticipants-77630494-065d-5e39-8a79-5b6e0f8d3362" class="er entityLabel">BarbecueParticipants</text><rect height="22.5" width="56.692708333333336" y="24" x="0" class="er attributeBoxOdd"/><text style="dominant-baseline: middle; font-size: 10.2px;" transform="translate(5,35.25)" y="0" x="0" id="text-entity-BarbecueParticipants-77630494-065d-5e39-8a79-5b6e0f8d3362-attr-1-type" class="er entityLabel">String</text><rect height="22.5" width="54.567708333333336" y="24" x="56.692708333333336" class="er attributeBoxOdd"/><text style="dominant-baseline: middle; font-size: 10.2px;" transform="translate(61.692708333333336,35.25)" y="0" x="0" id="text-entity-BarbecueParticipants-77630494-065d-5e39-8a79-5b6e0f8d3362-attr-1-name" class="er entityLabel">id</text><rect height="22.5" width="32.575520833333336" y="24" x="111.26041666666667" class="er attributeBoxOdd"/><text style="dominant-baseline: middle; font-size: 10.2px;" transform="translate(116.26041666666667,35.25)" y="0" x="0" id="text-entity-BarbecueParticipants-77630494-065d-5e39-8a79-5b6e0f8d3362-attr-1-comment" class="er entityLabel">🗝️</text><rect height="22" width="56.692708333333336" y="46.5" x="0" class="er attributeBoxEven"/><text style="dominant-baseline: middle; font-size: 10.2px;" transform="translate(5,57.5)" y="0" x="0" id="text-entity-BarbecueParticipants-77630494-065d-5e39-8a79-5b6e0f8d3362-attr-2-type" class="er entityLabel">String</text><rect height="22" width="54.567708333333336" y="46.5" x="56.692708333333336" class="er attributeBoxEven"/><text style="dominant-baseline: middle; font-size: 10.2px;" transform="translate(61.692708333333336,57.5)" y="0" x="0" id="text-entity-BarbecueParticipants-77630494-065d-5e39-8a79-5b6e0f8d3362-attr-2-name" class="er entityLabel">name</text><rect height="22" width="32.575520833333336" y="46.5" x="111.26041666666667" class="er attributeBoxEven"/><text style="dominant-baseline: middle; font-size: 10.2px;" transform="translate(116.26041666666667,57.5)" y="0" x="0" id="text-entity-BarbecueParticipants-77630494-065d-5e39-8a79-5b6e0f8d3362-attr-2-comment" class="er entityLabel"/><rect height="22" width="56.692708333333336" y="68.5" x="0" class="er attributeBoxOdd"/><text style="dominant-baseline: middle; font-size: 10.2px;" transform="translate(5,79.5)" y="0" x="0" id="text-entity-BarbecueParticipants-77630494-065d-5e39-8a79-5b6e0f8d3362-attr-3-type" class="er entityLabel">Decimal</text><rect height="22" width="54.567708333333336" y="68.5" x="56.692708333333336" class="er attributeBoxOdd"/><text style="dominant-baseline: middle; font-size: 10.2px;" transform="translate(61.692708333333336,79.5)" y="0" x="0" id="text-entity-BarbecueParticipants-77630494-065d-5e39-8a79-5b6e0f8d3362-attr-3-name" class="er entityLabel">amount</text><rect height="22" width="32.575520833333336" y="68.5" x="111.26041666666667" class="er attributeBoxOdd"/><text style="dominant-baseline: middle; font-size: 10.2px;" transform="translate(116.26041666666667,79.5)" y="0" x="0" id="text-entity-BarbecueParticipants-77630494-065d-5e39-8a79-5b6e0f8d3362-attr-3-comment" class="er entityLabel"/><rect height="22" width="56.692708333333336" y="90.5" x="0" class="er attributeBoxEven"/><text style="dominant-baseline: middle; font-size: 10.2px;" transform="translate(5,101.5)" y="0" x="0" id="text-entity-BarbecueParticipants-77630494-065d-5e39-8a79-5b6e0f8d3362-attr-4-type" class="er entityLabel">Boolean</text><rect height="22" width="54.567708333333336" y="90.5" x="56.692708333333336" class="er attributeBoxEven"/><text style="dominant-baseline: middle; font-size: 10.2px;" transform="translate(61.692708333333336,101.5)" y="0" x="0" id="text-entity-BarbecueParticipants-77630494-065d-5e39-8a79-5b6e0f8d3362-attr-4-name" class="er entityLabel">paid</text><rect height="22" width="32.575520833333336" y="90.5" x="111.26041666666667" class="er attributeBoxEven"/><text style="dominant-baseline: middle; font-size: 10.2px;" transform="translate(116.26041666666667,101.5)" y="0" x="0" id="text-entity-BarbecueParticipants-77630494-065d-5e39-8a79-5b6e0f8d3362-attr-4-comment" class="er entityLabel"/></g><rect height="14" width="54.7890625" y="242.1824493408203" x="44.26789093017578" class="er relationshipLabelBox"/><text style="text-anchor: middle; dominant-baseline: middle; font-size: 12px;" y="249.1824493408203" x="71.66242218017578" id="rel1" class="er relationshipLabel">barbecues</text><rect height="14" width="22.625" y="242.1824493408203" x="147.8844451904297" class="er relationshipLabelBox"/><text style="text-anchor: middle; dominant-baseline: middle; font-size: 12px;" y="249.1824493408203" x="159.1969451904297" id="rel2" class="er relationshipLabel">user</text><rect height="14.000030517578125" width="64.359375" y="499.5487823486328" x="40.43934631347656" class="er relationshipLabelBox"/><text style="text-anchor: middle; dominant-baseline: middle; font-size: 12px;" y="506.5487976074219" x="72.61903381347656" id="rel3" class="er relationshipLabel">participants</text><rect height="14" width="49.9296875" y="499.54876708984375" x="133.27549743652344" class="er relationshipLabelBox"/><text style="text-anchor: middle; dominant-baseline: middle; font-size: 12px;" y="506.54876708984375" x="158.24034118652344" id="rel4" class="er relationshipLabel">barbecue</text></svg>